<?xml version="1.0" encoding="UTF-8"?>
<!-- Generator: Adobe Illustrator 16.0.0, SVG Export Plug-In . SVG Version: 6.00 Build 0)  -->
<!DOCTYPE svg PUBLIC "-//W3C//DTD SVG 1.1//EN" "http://www.w3.org/Graphics/SVG/1.1/DTD/svg11.dtd">
<svg version="1.1" id="Layer_1" xmlns="http://www.w3.org/2000/svg" xmlns:xlink="http://www.w3.org/1999/xlink" x="0px" y="0px" width="256px" height="256px" viewBox="0 0 256 256" enable-background="new 0 0 256 256" xml:space="preserve">
<rect fill="#E05C5C" width="256" height="256"/>
<g>
	<path fill="#AD3E41" d="M243.529,76.35c-2.143-3.429-4.756-8.152-10.869-9.285c-0.227-2.491-1.381-4.202-2.717-6.793   c-3.625-7.021-9.059-7.926-17.438-9.511c-2.039-4.077,0-5.888-5.662-9.059s-14.041-3.624-14.041-3.624s2.266-3.85-0.904-7.02   c-3.172-3.17-9.285-3.623-9.285-3.623s-0.453-12.002-2.039-21.287c-0.355-2.082-0.893-3.797-1.762-6.148h-93.75   c-0.814,6.237-1.497,12.354-1.639,15.885c-0.227,5.662-4.076,6.794-8.152,8.605c-4.076,1.812-1.359,2.038-2.038,3.85   c-0.68,1.812-5.888,0-8.379,2.944c-2.491,2.944,0.226,3.623-2.718,5.888s-6.793,1.812-13.134,5.435   c-6.341,3.624-2.038,7.021-5.208,8.832s-9.285,0.453-14.041,4.755c-4.756,4.303-4.756,9.964-4.756,9.964s-0.679,1.359-5.435,3.85   C14.807,72.5,9.599,76.803,7.561,84.276S1.22,96.504,2.125,113.715c0.906,17.21,4.755,18.343,12.908,36.913   c8.152,18.569,17.89,26.949,23.778,26.949c5.888,0,11.776-17.211,12.456-24.458c4.982,0,5.661-4.076,6.341-6.567   c0.679-2.491,0.906-12.002,0.679-14.267s-0.227-1.359,2.944,1.585s3.397-6.567,4.529-6.341s1.812-0.227,1.812-0.227   s-0.679,7.247,0.906,13.135C70.063,146.325,84,198.667,84,198.667s0.686-26.869,26.074-37.667c20.776-8.838,55.259-3,62.344,39.488   c5.582-24.821,15.855-73.186,15.855-73.186s2.266-3.85,2.719,2.265c0.453,6.115,7.699,2.491,7.699,2.491s-1.813,7.021-0.227,14.493   c1.586,7.474,6.115,6.794,6.115,6.794s0.904,0.906,3.17,11.097c2.264,10.19,6.793,12.908,10.189,12.908   c3.398,0,13.135-7.474,17.211-15.626s4.303-11.097,9.512-18.796s8.605-20.155,8.605-29.666s-1.359-14.72-2.943-22.646   C248.738,82.69,243.529,76.35,243.529,76.35z"/>
	<path fill="#7A201F" d="M95.875,0c-0.309,0.684-0.613,1.372-0.902,2.071c-5.435,13.135,2.265,24.458,6.341,27.628   c4.077,3.17,9.059,9.511,13.135,16.758c4.076,7.247,9.964,11.323,18.569,10.417c5.926-0.624,8.605-0.453,14.947-8.153   c5.355-6.503,7.246-13.587,16.758-24.91c8.089-9.629,5.695-16.638,2.013-23.812H95.875z"/>
	<path fill="#FFFFFF" d="M37,77.935c0,0,1.812,1.132,5.888-2.265c4.077-3.397,13.814-13.361,18.57-18.343   c4.755-4.982,10.19-7.247,16.984-9.737c6.794-2.491,10.417-4.529,13.135-4.529c0,0,1.331,1.787,0.048,4.127   c-1.283,2.341-6.087,3.572-9.107,5.233s-6.038,2.793-8.228,5.133c4.076-0.982,8.756-0.982,11.398-0.755   c2.643,0.227,4.907,0.302,7.096,0.453c0.377,2.567-0.151,4.228-2.566,5.511s-10.04-0.982-12.078,0.302s-6.04,3.095-7.021,4.303   s0.227,1.963,1.736,1.585c1.51-0.377,7.624-0.754,8.983-0.075c1.358,0.68,3.85,2.189,7.02,4.152s3.397,4.604,0.906,5.736   c-2.491,1.132-5.436-1.358-8.228-2.792s-4.303-1.736-8.001-0.528c-3.699,1.208-8.455,2.491-6.718,3.472s6.869,1.661,9.36,3.85   c2.491,2.189,6.87,5.059,5.586,7.625c-1.284,2.566-4.454,0.905-6.643-0.151c-2.189-1.056-5.435-4.302-8.077-3.773   c-2.643,0.528-3.171,0.604-5.134,3.397c-1.962,2.792-7.774,10.643-13.285,10.869c-5.511,0.226-5.586-1.284-8.756-0.227   s-6.19,1.585-6.19,1.585S31.942,79.144,37,77.935z"/>
	<path fill="#FFFFFF" d="M219.752,79.067c-2.803-0.411-7.359-1.699-16.078-12.342c-8.719-10.644-11.098-13.361-22.873-18.117   c-11.775-4.756-15.738-6.001-16.758-6.341c-1.02-0.34-2.49,3.396,1.359,5.774s8.266,4.416,11.096,5.548s4.982,2.717,6.229,3.736   c1.244,1.019-1.586,0.227-3.736-0.339c-2.152-0.566-3.738-0.113-8.719,0.113c-4.982,0.226-6.908-0.566-6.908,0.679   s0.566,3.85,4.303,4.755c3.736,0.906,8.039-0.226,9.172,0.227c1.133,0.453,4.643,3.624,6.002,4.076   c1.357,0.453,4.076,1.812,2.377,2.151c-1.699,0.34-7.02-0.453-9.852-0.339c-2.83,0.113-3.17,1.358-6.793,3.51   s-3.623,2.491-3.623,4.077c0,1.585,2.49,3.057,4.643,2.151c2.15-0.906,6-3.624,7.699-3.963c1.699-0.339,2.49,0,5.662,1.246   c3.17,1.246,5.773,1.246,6.453,1.698c0.68,0.453-0.113,1.585-2.83,2.265c-2.719,0.68-3.85,0.68-6.455,3.057   c-2.604,2.378-4.416,3.85-5.434,4.869c-1.02,1.019-1.359,2.944,0.904,4.189c2.266,1.246,4.643-1.246,6.795-2.604   c2.15-1.358,3.623-2.491,6.906-2.377s3.51,0.679,3.51,0.679s4.529,6.794,7.926,9.851c3.398,3.057,8.832,3.963,13.248,3.51   c3.172-0.339,7.926,2.944,7.926,2.944S225.188,82.238,219.752,79.067z"/>
	<path fill="#7A201F" d="M33.679,102.09c0,0,0.755,12.154,3.17,21.515c2.416,9.361,5.585,20.684,7.548,25.666   s5.133,6.342,6.492-3.473c1.359-9.813-2.265-45.066-2.265-45.066s-3.02,0.019-4.944-0.377c-1.925-0.396-2.265-0.34-4.076,0.227   C37.792,101.147,33.679,102.09,33.679,102.09z"/>
	<path fill="#7A201F" d="M207.014,100.468c0,0-1.416,13.248-1.756,27.515c-0.34,14.267-0.001,29.817,4.075,28.685   c4.076-1.132,7.476-22.684,9.173-30.949c1.699-8.266,3.396-21.966,3.396-21.966s-5.402-3.372-7.586-2.944   C211.713,101.317,209.844,101.034,207.014,100.468z"/>
</g>
<path opacity="0.6" fill-rule="evenodd" clip-rule="evenodd" fill="#B94352" d="M97.875,167.333L9.209,256l126.049-0.008  l25.743-25.742c0,0-14.812,11.263-31.792,12.084c-20.667,1-33.645-10.676-41.334-30.667  C79.541,190.001,97.875,167.333,97.875,167.333z"/>
<g>
	<path fill="#FFFFFF" d="M144.059,211.576c0,0-23.001,0-24.246,0c-1.243,0-1.969,0.207-1.969,1.037c0,0.828-0.414,2.175,1.762,2.175   c1.451,0,19.998,0,22.486,0c2.484,0,3.729,1.037,3.729,3.108c0,2.666-2.488,2.694-4.248,2.694c-1.141,0-22.277,0-25.282,0   s-3.834-1.14-3.834-4.456c0-3.315,0-26.731,0-26.731s-1.969,0-4.353,0c-2.383,0-3.334-1.174-3.314-2.799   c0.022-1.968,1.762-2.59,4.041-2.59s5.387,0,7.355,0s2.488,1.657,2.488,3.419s0,4.974,0,4.974h35.955L144.059,211.576z"/>
	<circle fill="#FFFFFF" cx="115.824" cy="227.379" r="4.456"/>
	<circle fill="#FFFFFF" cx="140.795" cy="227.379" r="4.455"/>
	<path fill="#FFFFFF" d="M127.999,163.533c20.38,0,36.958,16.577,36.958,36.955c0,20.379-16.578,36.957-36.958,36.957   c-20.377,0-36.955-16.578-36.955-36.957C91.043,180.11,107.622,163.533,127.999,163.533 M127.999,156.072   c-24.529,0-44.416,19.888-44.416,44.416c0,24.532,19.887,44.417,44.416,44.417c24.531,0,44.419-19.885,44.419-44.417   C172.418,175.96,152.529,156.072,127.999,156.072L127.999,156.072z"/>
</g>
<circle fill="#FFFFFF" cx="128.047" cy="116.689" r="39.177"/>
<linearGradient id="SVGID_1_" gradientUnits="userSpaceOnUse" x1="95.7461" y1="159.9121" x2="160.083" y2="159.9121">
	<stop offset="0" style="stop-color:#5B3532"/>
	<stop offset="0.5" style="stop-color:#FF505C"/>
	<stop offset="1" style="stop-color:#7E3A3A"/>
</linearGradient>
<path fill="url(#SVGID_1_)" d="M95.746,170.141c0,0,8.583,5.917,32.917,5.917c25.5,0,31.42-6.225,31.42-6.225l-4.649-25.067  c0,0-8.288,4.23-28.52,4.23c-19.475,0-27.23-5.23-27.23-5.23L95.746,170.141z"/>
</svg>